<?xml version="1.0" standalone="no"?>
<!DOCTYPE svg PUBLIC "-//W3C//DTD SVG 20010904//EN"
 "http://www.w3.org/TR/2001/REC-SVG-20010904/DTD/svg10.dtd">
<svg version="1.0" xmlns="http://www.w3.org/2000/svg"
 width="64.000000pt" height="64.000000pt" viewBox="0 0 64.000000 64.000000"
 preserveAspectRatio="xMidYMid meet">

<g transform="translate(0.000000,64.000000) scale(0.100000,-0.100000)"
fill="#000000" stroke="none">
<path d="M293 600 c-14 -6 -21 -15 -17 -23 3 -8 -1 -21 -10 -29 -8 -8 -16 -26
-18 -39 -2 -17 -8 -23 -21 -21 -15 3 -17 0 -8 -15 5 -10 19 -19 31 -20 12 -1
25 -4 28 -7 13 -14 -15 -20 -94 -23 -78 -2 -86 0 -93 19 -6 18 -10 15 -24 -24
-45 -116 -1 -258 101 -329 123 -86 291 -64 381 50 47 59 45 62 -49 66 -51 2
-89 16 -83 30 4 11 25 14 96 12 62 -1 91 2 94 10 3 7 -11 14 -34 18 -88 16
-100 24 -30 22 66 -2 67 -2 67 24 0 26 -3 27 -77 36 l-78 10 78 2 c61 1 77 4
77 16 0 11 -12 15 -47 16 -55 1 -94 7 -102 16 -3 3 24 3 62 0 40 -4 67 -2 67
3 0 6 -4 10 -9 10 -6 0 -8 8 -6 19 4 23 -44 82 -90 111 -35 22 -125 50 -155
49 -8 0 -25 -4 -37 -9z m255 -157 c3 -10 -13 -13 -58 -13 -53 0 -59 2 -48 15
16 18 99 16 106 -2z m-290 -84 c-8 -5 -32 -5 -54 -2 -35 6 -36 7 -14 13 35 8
87 0 68 -11z m22 -95 c0 -2 -9 -4 -20 -4 -11 0 -20 4 -20 9 0 5 9 7 20 4 11
-3 20 -7 20 -9z m168 -83 c16 -1 16 -21 -1 -21 -7 0 -22 6 -33 14 -19 15 -19
15 1 11 11 -2 26 -4 33 -4z"/>
<path d="M181 544 c0 -11 3 -14 6 -6 3 7 2 16 -1 19 -3 4 -6 -2 -5 -13z"/>
<path d="M114 505 c-9 -14 -15 -27 -13 -28 40 -22 49 -26 49 -18 0 5 8 12 18
14 16 4 16 5 -1 6 -13 1 -17 8 -15 23 4 31 -18 33 -38 3z"/>
<path d="M200 526 c0 -2 7 -9 15 -16 12 -10 15 -10 15 4 0 9 -7 16 -15 16 -8
0 -15 -2 -15 -4z"/>
</g>
</svg>
